<?xml version="1.0" encoding="UTF-8"?>
<svg id="_레이어_1" data-name="레이어 1" xmlns="http://www.w3.org/2000/svg" version="1.1" viewBox="0 0 144 144">
  <defs>
    <style>
      .cls-1 {
        fill: #445046;
      }

      .cls-1, .cls-2, .cls-3 {
        stroke-width: 0px;
      }

      .cls-2 {
        fill: #9eb77d;
      }

      .cls-3 {
        fill: #fff;
      }
    </style>
  </defs>
  <circle class="cls-2" cx="72.22" cy="72.19" r="71.78"/>
  <g>
    <path class="cls-3" d="M72.45,62.42c-2.74.46-4.34,2.13-5.86,6.16l-9.81,25.71h-9.2l-5.63-16.35-5.7,16.35h-8.82l-10.27-25.33c-1.75-4.33-2.13-5.17-5.1-6.39l-.84-.3v-6.16h20.46v6.16l-.99.15c-1.98.3-3.04,1.44-3.04,2.89,0,.38.08.84.23,1.29l5.55,14.22,4.33-13.77-.3-.84c-1.14-2.97-1.22-3.04-3.19-3.73l-.84-.23v-6.16h19.93v6.16l-1.14.15c-1.67.23-3.04,1.06-3.04,2.66,0,.46.08.91.3,1.52l4.56,13.31,5.02-13.31c.15-.46.23-.84.23-1.22,0-1.52-1.22-2.36-3.27-2.89l-.91-.23v-6.16h18.18v6.16l-.84.15Z"/>
    <path class="cls-1" d="M106.51,98.08v-6.24l1.52-.15c4.26-.46,5.17-1.52,5.17-6.39v-11.41h-19.32v11.41c0,4.87.91,5.93,5.17,6.39l1.52.15v6.24h-26.69v-6.24l1.52-.15c4.26-.46,5.17-1.52,5.17-6.39v-26.24c0-4.87-.91-5.93-5.17-6.39l-1.52-.15v-6.24h26.69v6.24l-1.52.15c-4.26.46-5.17,1.52-5.17,6.39v7.45h19.32v-7.45c0-4.87-.91-5.93-5.17-6.39l-1.52-.15v-6.24h26.69v6.24l-1.52.15c-4.26.46-5.17,1.52-5.17,6.39v26.24c0,4.87.91,5.93,5.17,6.39l1.52.15v6.24h-26.69Z"/>
  </g>
</svg>