<svg width="21" height="21" viewBox="0 0 21 21" fill="none" xmlns="http://www.w3.org/2000/svg">
<path id="Vector" d="M10.5008 0.838867C7.78514 0.838867 7.44392 0.850355 6.37757 0.898305C5.31276 0.946255 4.58612 1.11208 3.95038 1.35533C3.2928 1.60656 2.73475 1.94271 2.17873 2.48964C1.62271 3.03657 1.28097 3.58499 1.02454 4.23182C0.776741 4.85766 0.60765 5.57242 0.559918 6.61932C0.512187 7.66872 0.5 8.00387 0.5 10.6756C0.5 13.3473 0.512187 13.6814 0.560426 14.7303C0.609173 15.7777 0.777757 16.4925 1.02505 17.1178C1.28046 17.7647 1.6222 18.3136 2.17822 18.8605C2.73373 19.4074 3.29178 19.7446 3.94885 19.9958C4.5851 20.2391 5.31225 20.4049 6.37656 20.4528C7.44341 20.5008 7.78413 20.5123 10.4997 20.5123C13.2154 20.5123 13.5556 20.5008 14.6224 20.4528C15.6872 20.4049 16.4144 20.2391 17.0506 19.9958C17.7082 19.7446 18.2653 19.4074 18.8208 18.8605C19.3768 18.3136 19.7185 17.7652 19.975 17.1183C20.2207 16.4925 20.3893 15.7777 20.4396 14.7308C20.4873 13.6814 20.5 13.3473 20.5 10.6756C20.5 8.00387 20.4873 7.66872 20.4396 6.61982C20.3898 5.57242 20.2207 4.85766 19.975 4.23232C19.7185 3.58549 19.3768 3.03657 18.8208 2.48964C18.2647 1.94271 17.7082 1.60656 17.0501 1.35533C16.4129 1.11208 15.6857 0.946255 14.6209 0.898305C13.5541 0.850355 13.2149 0.838867 10.4977 0.838867L10.5008 0.838867ZM9.60351 2.61151C9.86959 2.61151 10.1666 2.61151 10.5008 2.61151C13.1707 2.61151 13.4875 2.621 14.5417 2.66795C15.5166 2.71191 16.0457 2.87224 16.3986 3.0066C16.8653 3.18491 17.1979 3.39819 17.5478 3.74233C17.8976 4.08647 18.1144 4.41463 18.2962 4.87365C18.4333 5.21978 18.5963 5.74074 18.6405 6.69974C18.6882 7.73665 18.6989 8.04833 18.6989 10.6736C18.6989 13.2988 18.6882 13.61 18.6405 14.6474C18.5958 15.6064 18.4328 16.1269 18.2962 16.4735C18.115 16.9325 17.8981 17.2592 17.5478 17.6033C17.1979 17.9475 16.8653 18.1607 16.3986 18.3391C16.0468 18.4744 15.5171 18.6343 14.5417 18.6782C13.4875 18.7252 13.1707 18.7356 10.5008 18.7356C7.83085 18.7356 7.51399 18.7252 6.45983 18.6782C5.48489 18.6338 4.95578 18.4739 4.60288 18.3391C4.13623 18.1607 3.80261 17.9475 3.45275 17.6033C3.10289 17.2592 2.88607 16.932 2.70428 16.4725C2.56718 16.1264 2.40418 15.6054 2.36 14.6464C2.31227 13.6095 2.30263 13.2978 2.30263 10.6711C2.30263 8.04433 2.31227 7.73465 2.36 6.69724C2.40469 5.73824 2.56769 5.21779 2.70428 4.87065C2.88556 4.41163 3.10238 4.08347 3.45275 3.73933C3.80261 3.39519 4.13623 3.18192 4.60288 3.0031C4.95528 2.86774 5.48489 2.70791 6.45983 2.66396C7.38247 2.623 7.73995 2.61051 9.60351 2.60852V2.61151ZM15.8386 4.2448C15.1759 4.2448 14.6387 4.77325 14.6387 5.42507C14.6387 6.07689 15.1759 6.60533 15.8386 6.60533C16.5012 6.60533 17.0385 6.07689 17.0385 5.42507C17.0385 4.77275 16.5007 4.2448 15.8386 4.2448ZM10.5008 5.62386C7.6648 5.62386 5.36506 7.8855 5.36506 10.6756C5.36506 13.4657 7.66429 15.7263 10.5008 15.7263C13.3367 15.7263 15.6355 13.4657 15.6355 10.6756C15.6355 7.8855 13.3367 5.62386 10.5008 5.62386ZM10.5008 7.39651C12.3415 7.39651 13.8343 8.86447 13.8343 10.6756C13.8343 12.4867 12.342 13.9546 10.5008 13.9546C8.65955 13.9546 7.16717 12.4867 7.16717 10.6756C7.16717 8.86447 8.65955 7.39651 10.5008 7.39651Z" fill="white"/>
</svg>
