<svg width="21" height="15" viewBox="0 0 21 15" fill="none" xmlns="http://www.w3.org/2000/svg">
<g id="_?&#235;&#141;&#137;&#236;&#148;&#160;??1" clip-path="url(#clip0_68_53)">
<path id="Mail-Icon-svg-98uyhgv" d="M20.049 0.752949C19.7835 0.482432 19.4295 0.333496 19.0612 0.333496H1.93591C1.77034 0.333496 1.60762 0.363891 1.45347 0.421642C0.882529 0.640487 0.5 1.21799 0.5 1.86237V12.8016C0.5 13.449 0.882529 14.0235 1.45347 14.2423C1.60762 14.3031 1.77319 14.3335 1.93591 14.3305H19.0612C19.2268 14.3305 19.3895 14.3001 19.5465 14.2423C20.1175 14.0235 20.5 13.449 20.5 12.8016V1.86237C20.5 1.44292 20.3373 1.03866 20.0518 0.749909M18.1706 1.56754L13.3204 6.73167L13.0178 7.05386L10.6941 9.52802C10.5856 9.64353 10.4115 9.64353 10.3059 9.52802L7.98216 7.05386L7.67956 6.73167L2.82943 1.57058H18.1706V1.56754ZM1.66186 12.5888V2.07818L6.59763 7.3335L1.66186 12.5888ZM2.82943 13.0964L7.41978 8.20888L9.48373 10.4064C9.74351 10.683 10.0918 10.8441 10.46 10.8533H10.5029C10.8825 10.8533 11.2479 10.6922 11.5163 10.4064L13.5802 8.20888L18.1706 13.0964H2.82943ZM19.3353 12.5888L14.3995 7.3335L19.3353 2.07818V12.5888Z" fill="white"/>
</g>
<defs>
<clipPath id="clip0_68_53">
<rect width="20" height="14" fill="white" transform="translate(0.5 0.333496)"/>
</clipPath>
</defs>
</svg>
