<svg width="21" height="15" viewBox="0 0 21 15" fill="none" xmlns="http://www.w3.org/2000/svg">
<g id="Layer_1" clip-path="url(#clip0_68_48)">
<path id="Vector" d="M20.0879 2.82545C19.8574 1.96169 19.1815 1.28097 18.3255 1.04858C16.7602 0.616699 10.4997 0.616699 10.4997 0.616699C10.4997 0.616699 4.23916 0.616699 2.67455 1.03213C1.8341 1.26452 1.14257 1.96238 0.912063 2.82614C0.5 4.40352 0.5 7.67552 0.5 7.67552C0.5 7.67552 0.5 10.964 0.912063 12.5249C1.14257 13.3887 1.81846 14.0694 2.67455 14.3018C4.25616 14.7337 10.4997 14.7337 10.4997 14.7337C10.4997 14.7337 16.7602 14.7337 18.3248 14.3182C19.1815 14.0858 19.8567 13.4044 20.0873 12.5414C20.4993 10.9633 20.4993 7.69198 20.4993 7.69198C20.4993 7.69198 20.5156 4.40352 20.0873 2.82545H20.0879ZM8.50666 10.698V4.65237L13.7125 7.67484L8.50666 10.6973V10.698Z" fill="white"/>
</g>
<defs>
<clipPath id="clip0_68_48">
<rect width="20" height="14.1176" fill="white" transform="translate(0.5 0.616699)"/>
</clipPath>
</defs>
</svg>
